<mxfile host="app.diagrams.net" agent="Mozilla/5.0 (Windows NT 10.0; Win64; x64) AppleWebKit/537.36 (KHTML, like Gecko) Chrome/128.0.0.0 Safari/537.36" version="24.7.7">
  <diagram name="Page-1" id="5f0bae14-7c28-e335-631c-24af17079c00">
    <mxGraphModel dx="1500" dy="814" grid="1" gridSize="10" guides="1" tooltips="1" connect="1" arrows="1" fold="1" page="1" pageScale="1" pageWidth="1100" pageHeight="850" background="none" math="0" shadow="0">
      <root>
        <mxCell id="0" />
        <mxCell id="1" parent="0" />
        <mxCell id="sZ3JRgNOK4QYGD-5RQcW-36" style="edgeStyle=orthogonalEdgeStyle;rounded=0;orthogonalLoop=1;jettySize=auto;html=1;entryX=0;entryY=0.5;entryDx=0;entryDy=0;" edge="1" parent="1" source="sZ3JRgNOK4QYGD-5RQcW-1" target="sZ3JRgNOK4QYGD-5RQcW-31">
          <mxGeometry relative="1" as="geometry" />
        </mxCell>
        <mxCell id="sZ3JRgNOK4QYGD-5RQcW-1" value="administrador&lt;div&gt;&lt;br&gt;&lt;/div&gt;" style="shape=umlActor;verticalLabelPosition=bottom;verticalAlign=top;html=1;outlineConnect=0;" vertex="1" parent="1">
          <mxGeometry x="80" y="190" width="30" height="60" as="geometry" />
        </mxCell>
        <mxCell id="sZ3JRgNOK4QYGD-5RQcW-35" style="edgeStyle=orthogonalEdgeStyle;rounded=0;orthogonalLoop=1;jettySize=auto;html=1;entryX=0;entryY=0.5;entryDx=0;entryDy=0;" edge="1" parent="1" source="sZ3JRgNOK4QYGD-5RQcW-2" target="sZ3JRgNOK4QYGD-5RQcW-31">
          <mxGeometry relative="1" as="geometry" />
        </mxCell>
        <mxCell id="sZ3JRgNOK4QYGD-5RQcW-2" value="&lt;div&gt;user-comum&lt;/div&gt;" style="shape=umlActor;verticalLabelPosition=bottom;verticalAlign=top;html=1;outlineConnect=0;" vertex="1" parent="1">
          <mxGeometry x="80" y="399" width="30" height="60" as="geometry" />
        </mxCell>
        <mxCell id="sZ3JRgNOK4QYGD-5RQcW-32" value="" style="group" vertex="1" connectable="0" parent="1">
          <mxGeometry x="330" y="239" width="300" height="160" as="geometry" />
        </mxCell>
        <mxCell id="sZ3JRgNOK4QYGD-5RQcW-31" value="" style="rounded=0;whiteSpace=wrap;html=1;" vertex="1" parent="sZ3JRgNOK4QYGD-5RQcW-32">
          <mxGeometry width="300" height="160" as="geometry" />
        </mxCell>
        <mxCell id="sZ3JRgNOK4QYGD-5RQcW-27" value="user" style="fillColor=none;strokeColor=none;align=left;fontSize=14;fontColor=#212529;" vertex="1" parent="sZ3JRgNOK4QYGD-5RQcW-32">
          <mxGeometry x="10" width="260" height="40" as="geometry" />
        </mxCell>
        <mxCell id="sZ3JRgNOK4QYGD-5RQcW-28" value="Example input placeholder" style="html=1;shadow=0;dashed=0;shape=mxgraph.bootstrap.rrect;rSize=5;fillColor=none;strokeColor=#999999;align=left;spacing=15;fontSize=14;fontColor=#6C767D;" vertex="1" parent="sZ3JRgNOK4QYGD-5RQcW-32">
          <mxGeometry width="280" height="30" relative="1" as="geometry">
            <mxPoint x="10" y="30" as="offset" />
          </mxGeometry>
        </mxCell>
        <mxCell id="sZ3JRgNOK4QYGD-5RQcW-29" value="pw" style="fillColor=none;strokeColor=none;align=left;fontSize=14;fontColor=#212529;" vertex="1" parent="sZ3JRgNOK4QYGD-5RQcW-32">
          <mxGeometry width="260" height="40" relative="1" as="geometry">
            <mxPoint x="10" y="50" as="offset" />
          </mxGeometry>
        </mxCell>
        <mxCell id="sZ3JRgNOK4QYGD-5RQcW-30" value="Another input placeholder" style="html=1;shadow=0;dashed=0;shape=mxgraph.bootstrap.rrect;rSize=5;fillColor=none;strokeColor=#999999;align=left;spacing=15;fontSize=14;fontColor=#6C767D;" vertex="1" parent="sZ3JRgNOK4QYGD-5RQcW-32">
          <mxGeometry width="280" height="30" relative="1" as="geometry">
            <mxPoint x="10" y="90" as="offset" />
          </mxGeometry>
        </mxCell>
        <mxCell id="sZ3JRgNOK4QYGD-5RQcW-37" value="" style="rounded=0;whiteSpace=wrap;html=1;" vertex="1" parent="1">
          <mxGeometry x="550" y="520" width="400" height="280" as="geometry" />
        </mxCell>
        <mxCell id="sZ3JRgNOK4QYGD-5RQcW-39" value="" style="rounded=0;whiteSpace=wrap;html=1;" vertex="1" parent="1">
          <mxGeometry x="30" y="520" width="400" height="280" as="geometry" />
        </mxCell>
        <mxCell id="sZ3JRgNOK4QYGD-5RQcW-41" value="user-comum" style="text;html=1;align=center;verticalAlign=middle;whiteSpace=wrap;rounded=0;" vertex="1" parent="1">
          <mxGeometry x="30" y="520" width="80" height="30" as="geometry" />
        </mxCell>
        <mxCell id="sZ3JRgNOK4QYGD-5RQcW-42" value="administrador" style="text;html=1;align=center;verticalAlign=middle;whiteSpace=wrap;rounded=0;" vertex="1" parent="1">
          <mxGeometry x="550" y="520" width="80" height="30" as="geometry" />
        </mxCell>
        <mxCell id="sZ3JRgNOK4QYGD-5RQcW-45" style="edgeStyle=orthogonalEdgeStyle;rounded=0;orthogonalLoop=1;jettySize=auto;html=1;entryX=0.5;entryY=0;entryDx=0;entryDy=0;" edge="1" parent="1" source="sZ3JRgNOK4QYGD-5RQcW-31" target="sZ3JRgNOK4QYGD-5RQcW-39">
          <mxGeometry relative="1" as="geometry" />
        </mxCell>
        <mxCell id="sZ3JRgNOK4QYGD-5RQcW-46" style="edgeStyle=orthogonalEdgeStyle;rounded=0;orthogonalLoop=1;jettySize=auto;html=1;entryX=0.5;entryY=0;entryDx=0;entryDy=0;" edge="1" parent="1" source="sZ3JRgNOK4QYGD-5RQcW-31" target="sZ3JRgNOK4QYGD-5RQcW-37">
          <mxGeometry relative="1" as="geometry" />
        </mxCell>
        <mxCell id="sZ3JRgNOK4QYGD-5RQcW-47" value="Novo colaborador" style="html=1;shadow=0;dashed=0;shape=mxgraph.bootstrap.rrect;rSize=5;strokeColor=none;strokeWidth=1;fillColor=#0085FC;fontColor=#FFFFFF;whiteSpace=wrap;align=center;verticalAlign=middle;spacingLeft=0;fontStyle=1;fontSize=14;spacing=5;" vertex="1" parent="1">
          <mxGeometry x="580" y="590" width="140" height="40" as="geometry" />
        </mxCell>
        <mxCell id="sZ3JRgNOK4QYGD-5RQcW-48" value="Relatorio de ponto" style="html=1;shadow=0;dashed=0;shape=mxgraph.bootstrap.rrect;rSize=5;strokeColor=none;strokeWidth=1;fillColor=#0085FC;fontColor=#FFFFFF;whiteSpace=wrap;align=center;verticalAlign=middle;spacingLeft=0;fontStyle=1;fontSize=14;spacing=5;" vertex="1" parent="1">
          <mxGeometry x="760" y="590" width="140" height="40" as="geometry" />
        </mxCell>
        <mxCell id="sZ3JRgNOK4QYGD-5RQcW-49" value="Marcar Ponto" style="html=1;shadow=0;dashed=0;shape=mxgraph.bootstrap.rrect;rSize=5;strokeColor=none;strokeWidth=1;fillColor=#0085FC;fontColor=#FFFFFF;whiteSpace=wrap;align=center;verticalAlign=middle;spacingLeft=0;fontStyle=1;fontSize=14;spacing=5;" vertex="1" parent="1">
          <mxGeometry x="50" y="590" width="120" height="40" as="geometry" />
        </mxCell>
        <mxCell id="sZ3JRgNOK4QYGD-5RQcW-50" value="Relatorio de ponto" style="html=1;shadow=0;dashed=0;shape=mxgraph.bootstrap.rrect;rSize=5;strokeColor=none;strokeWidth=1;fillColor=#0085FC;fontColor=#FFFFFF;whiteSpace=wrap;align=center;verticalAlign=middle;spacingLeft=0;fontStyle=1;fontSize=14;spacing=5;" vertex="1" parent="1">
          <mxGeometry x="252" y="592" width="140" height="40" as="geometry" />
        </mxCell>
      </root>
    </mxGraphModel>
  </diagram>
</mxfile>
